<svg width="24" height="24" viewBox="0 0 24 24" fill="none" xmlns="http://www.w3.org/2000/svg">
<path d="M2.81604 8.46931C1.77871 5.25279 1.26005 3.64454 1.88829 2.6542C2.08489 2.34429 2.34731 2.08147 2.65691 1.8844C3.64628 1.25463 5.25533 1.77082 8.47343 2.80319L15.069 4.91905C19.9345 6.47993 22.3673 7.26037 22.7914 8.396C23.0319 9.04007 22.9965 9.75476 22.6936 10.372C22.1596 11.4602 19.6583 11.9975 14.6558 13.0722V13.0722C14.1372 13.1836 13.8778 13.2393 13.6746 13.3786C13.5458 13.4668 13.4347 13.5784 13.347 13.7076C13.2087 13.9114 13.1542 14.1707 13.0451 14.6893V14.6893C12.0101 19.6123 11.4926 22.0739 10.4394 22.6191C9.80025 22.9499 9.04953 22.9893 8.3793 22.7271C7.27482 22.295 6.50278 19.9011 4.9587 15.1132L2.81604 8.46931Z" stroke="white" stroke-width="1.875" stroke-linejoin="round"/>
</svg>
