<svg width="51" height="52" viewBox="0 0 51 52" fill="none" xmlns="http://www.w3.org/2000/svg">
<g clip-path="url(#clip0_127_244)">
<path d="M32.5769 14.7127C41.3489 14.7733 48.5725 22.1114 48.4514 30.8431C48.3369 39.5411 41.1402 46.657 32.4489 46.6772C23.724 46.6974 16.4398 39.3526 16.5004 30.6074C16.561 21.7748 23.7644 14.6589 32.5769 14.7127ZM44.6275 30.7084C44.6409 23.9224 39.1475 18.4154 32.3951 18.4424C25.7706 18.4693 20.3175 23.9426 20.2502 30.6344C20.1762 37.2386 25.71 42.8331 32.321 42.8533C39.1811 42.8802 44.614 37.5214 44.6275 30.7084Z" fill="white"/>
<path d="M18.6613 50.6766C10.3133 49.5389 2.07987 39.38 0.847883 28.7028C-0.424502 17.6418 6.61737 6.37884 17.362 2.29913C27.8036 -1.66613 40.5342 1.86827 46.4383 10.5662C40.3726 4.97854 33.324 2.252 25.1107 3.40994C16.8705 4.56788 10.6903 8.95054 6.73182 16.2482C3.2984 22.5765 2.88774 29.2548 5.21034 36.0543C7.17614 41.7699 9.59973 44.3416 18.6613 50.6766Z" fill="white"/>
<path d="M22.3706 49.2492C13.2821 47.2901 6.27391 38.067 5.99116 28.339C5.69494 18.2609 12.5618 8.95031 22.3167 6.19011C31.2503 3.66554 42.143 7.31439 45.9669 14.2485C40.9178 9.54947 35.0136 7.19321 28.1333 7.98087C21.1857 8.77527 15.8336 12.276 12.1444 18.2003C6.523 27.2282 7.94349 42.0592 22.3706 49.2492Z" fill="white"/>
<path d="M45.5967 17.7827C35.4446 8.77494 23.1449 12.5585 17.9005 19.8629C14.494 24.6158 13.5044 29.8467 14.9787 35.4547C16.4329 40.9683 20.0413 44.8057 25.5954 47.5659C18.0553 46.2464 11.9829 38.7736 11.276 30.594C10.5557 22.1855 16.0222 13.9116 24.1816 11.0707C32.0381 8.33061 41.2477 11.1784 45.5967 17.7827Z" fill="white"/>
<path d="M32.4759 36.7878C35.8408 36.7878 38.5686 34.06 38.5686 30.6952C38.5686 27.3303 35.8408 24.6025 32.4759 24.6025C29.1111 24.6025 26.3833 27.3303 26.3833 30.6952C26.3833 34.06 29.1111 36.7878 32.4759 36.7878Z" fill="white"/>
</g>
<defs>
<clipPath id="clip0_127_244">
<rect width="51" height="51" fill="white" transform="translate(0 0.5)"/>
</clipPath>
</defs>
</svg>
