<svg width="20" height="26" viewBox="0 0 20 26" fill="none" xmlns="http://www.w3.org/2000/svg">
<path d="M4.375 1.75H15.625M4.375 1.75V7.375C4.375 7.95542 4.375 8.24563 4.39908 8.49009C4.63288 10.864 6.51103 12.7421 8.88491 12.9759C9.12937 13 9.41958 13 10 13M4.375 1.75H1.25M15.625 1.75V7.375C15.625 7.95542 15.625 8.24563 15.6009 8.49009C15.3671 10.864 13.489 12.7421 11.1151 12.9759C10.8706 13 10.5804 13 10 13M15.625 1.75H18.75M10 13C10.5804 13 10.8706 13 11.1151 13.0241C13.489 13.2579 15.3671 15.136 15.6009 17.5099C15.625 17.7544 15.625 18.0446 15.625 18.625V24.25M10 13C9.41958 13 9.12937 13 8.88492 13.0241C6.51103 13.2579 4.63288 15.136 4.39908 17.5099C4.375 17.7544 4.375 18.0446 4.375 18.625L4.375 24.25M15.625 24.25L4.375 24.25M15.625 24.25H18.75M4.375 24.25H1.25" stroke="white" stroke-width="1.875" stroke-linecap="round" stroke-linejoin="round"/>
</svg>
