<svg width="50" height="51" viewBox="0 0 50 51" fill="none" xmlns="http://www.w3.org/2000/svg">
<g clip-path="url(#clip0_127_232)">
<path d="M8.51064 36.1424C8.51064 38.4829 6.59574 40.3977 4.25532 40.3977C1.91489 40.3977 1.24159e-06 38.4829 1.13928e-06 36.1424L0 5.07856C-1.0231e-07 2.73813 1.91489 0.823242 4.25532 0.823242C6.59574 0.823242 8.51064 2.73813 8.51064 5.07856V36.1424Z" fill="white"/>
<path d="M22.3402 46.2445C22.3402 48.5849 20.4253 50.4998 18.0849 50.4998C15.7445 50.4998 13.8296 48.5849 13.8296 46.2445V15.1807C13.8296 12.8402 15.7445 10.9253 18.0849 10.9253C20.4253 10.9253 22.3402 12.8402 22.3402 15.1807V46.2445Z" fill="white"/>
<path d="M36.1703 36.1424C36.1703 38.4829 34.2554 40.3977 31.915 40.3977C29.5746 40.3977 27.6597 38.4829 27.6597 36.1424V5.07856C27.6597 2.73813 29.5746 0.823242 31.915 0.823242C34.2554 0.823242 36.1703 2.73813 36.1703 5.07856V36.1424Z" fill="white"/>
<path d="M49.9999 46.2445C49.9999 48.5849 48.085 50.4998 45.7446 50.4998C43.4042 50.4998 41.4893 48.5849 41.4893 46.2445V16.1807C41.4893 13.8402 43.4041 11.9253 45.7446 11.9253C48.085 11.9253 49.9999 13.8402 49.9999 16.1807V46.2445Z" fill="white"/>
</g>
<defs>
<clipPath id="clip0_127_232">
<rect width="50" height="50" fill="white" transform="translate(0 0.5)"/>
</clipPath>
</defs>
</svg>
