<svg width="51" height="52" viewBox="0 0 51 52" fill="none" xmlns="http://www.w3.org/2000/svg">
<g clip-path="url(#clip0_127_241)">
<path d="M14.6077 34.1427H7.77577C3.89147 34.1427 0.750977 31.0022 0.750977 27.1179V26.7047C0.750977 22.848 3.89147 19.7075 7.77577 19.7075C21.2744 19.7075 32.211 30.6441 32.211 44.1427V44.2529C32.211 48.1372 29.0705 51.2777 25.1862 51.2777C21.3019 51.2777 18.1614 48.1372 18.1614 44.2529V37.724C18.1614 35.7405 16.5636 34.1427 14.6077 34.1427Z" fill="white"/>
<path d="M33.6438 15.1067V8.27479C33.6438 4.3905 30.5033 1.25 26.619 1.25H26.2057C22.349 1.25 19.2085 4.3905 19.2085 8.27479C19.2085 21.7734 30.1451 32.7101 43.6438 32.7101H43.754C47.6382 32.7101 50.7787 29.5696 50.7787 25.6853C50.7787 21.801 47.6382 18.6605 43.754 18.6605H37.225C35.2416 18.6605 33.6438 17.0627 33.6438 15.1067Z" fill="white"/>
</g>
<defs>
<clipPath id="clip0_127_241">
<rect width="51" height="51" fill="white" transform="translate(0 0.5)"/>
</clipPath>
</defs>
</svg>
