<svg width="50" height="51" viewBox="0 0 50 51" fill="none" xmlns="http://www.w3.org/2000/svg">
<g clip-path="url(#clip0_127_237)">
<path d="M41.2639 25.5308C41.2639 35.7538 36.2453 44.7377 28.5006 50.3139C40.6444 48.5791 50 38.1082 50 25.5308C50 12.8913 40.6444 2.48238 28.5006 0.747559C36.1834 6.26181 41.2639 15.3077 41.2639 25.5308Z" fill="white"/>
<path d="M17.4722 49.3229C19.207 49.8805 20.9418 50.2523 22.8005 50.3762C29.554 44.1804 33.7671 35.3204 33.7671 25.4691C33.7671 15.6178 29.492 6.75785 22.8005 0.624023C20.9418 0.809896 19.145 1.18164 17.4722 1.67731C23.1723 7.93505 26.6419 16.2994 26.6419 25.5311C26.6419 34.7628 23.1723 43.0652 17.4722 49.3229Z" fill="white"/>
<path d="M-0.000183105 25.5313C-0.000183481 34.1434 4.33686 41.7643 11.0283 46.2252C16.5426 41.0208 20.0122 33.6478 20.0122 25.5313C20.0122 17.3528 16.5426 9.9799 11.0283 4.8374C4.33687 9.29836 -0.000182726 16.8572 -0.000183105 25.5313Z" fill="white"/>
</g>
<defs>
<clipPath id="clip0_127_237">
<rect width="50" height="50" fill="white" transform="translate(0 0.5)"/>
</clipPath>
</defs>
</svg>
