<svg width="85" height="14" viewBox="0 0 85 14" fill="none" xmlns="http://www.w3.org/2000/svg">
<mask id="mask0_62_1716" style="mask-type:luminance" maskUnits="userSpaceOnUse" x="0" y="0" width="85" height="14">
<path d="M84.5 0H0.5V14H84.5V0Z" fill="white"/>
</mask>
<g mask="url(#mask0_62_1716)">
<path d="M9.75848 3.90797L13.4594 4.45146C13.77 4.50322 14.0288 4.71027 14.1323 5.02084C14.2358 5.30552 14.1582 5.64197 13.9252 5.84901L11.2337 8.51471L11.8807 12.2933C11.9324 12.6038 11.803 12.9144 11.5442 13.0956C11.2854 13.3026 10.949 13.3026 10.6643 13.1732L7.35158 11.3874L4.01299 13.1732C3.75418 13.3026 3.39185 13.3026 3.15893 13.0956C2.90012 12.9144 2.77072 12.6038 2.82248 12.2933L3.44361 8.51471L0.752034 5.84901C0.519109 5.64197 0.441467 5.30552 0.54499 5.02084C0.648512 4.71027 0.907318 4.50322 1.21789 4.45146L4.94469 3.90797L6.60105 0.465851C6.73045 0.181164 7.01513 0 7.35158 0C7.66215 0 7.94684 0.181164 8.07624 0.465851L9.75848 3.90797Z" fill="#FFC700"/>
<path d="M27.1491 3.90797L30.8501 4.45146C31.1606 4.50322 31.4194 4.71027 31.5229 5.02084C31.6265 5.30552 31.5488 5.64197 31.3159 5.84901L28.6243 8.51471L29.2713 12.2933C29.3231 12.6038 29.1937 12.9144 28.9349 13.0956C28.6761 13.3026 28.3396 13.3026 28.0549 13.1732L24.7422 11.3874L21.4036 13.1732C21.1448 13.3026 20.7825 13.3026 20.5496 13.0956C20.2908 12.9144 20.1614 12.6038 20.2131 12.2933L20.8343 8.51471L18.1427 5.84901C17.9098 5.64197 17.8321 5.30552 17.9356 5.02084C18.0392 4.71027 18.298 4.50322 18.6085 4.45146L22.3353 3.90797L23.9917 0.465851C24.1211 0.181164 24.4058 0 24.7422 0C25.0528 0 25.3375 0.181164 25.4669 0.465851L27.1491 3.90797Z" fill="#FFC700"/>
<path d="M44.5436 3.90797L48.2445 4.45146C48.5551 4.50322 48.8139 4.71027 48.9174 5.02084C49.0209 5.30552 48.9433 5.64197 48.7103 5.84901L46.0188 8.51471L46.6658 12.2933C46.7175 12.6038 46.5881 12.9144 46.3293 13.0956C46.0705 13.3026 45.7341 13.3026 45.4494 13.1732L42.1367 11.3874L38.7981 13.1732C38.5393 13.3026 38.177 13.3026 37.944 13.0956C37.6852 12.9144 37.5558 12.6038 37.6076 12.2933L38.2287 8.51471L35.5371 5.84901C35.3042 5.64197 35.2266 5.30552 35.3301 5.02084C35.4336 4.71027 35.6924 4.50322 36.003 4.45146L39.7298 3.90797L41.3861 0.465851C41.5155 0.181164 41.8002 0 42.1367 0C42.4472 0 42.7319 0.181164 42.8613 0.465851L44.5436 3.90797Z" fill="#FFC700"/>
<path d="M61.9342 3.90797L65.6351 4.45146C65.9457 4.50322 66.2045 4.71027 66.308 5.02084C66.4116 5.30552 66.3339 5.64197 66.101 5.84901L63.4094 8.51471L64.0564 12.2933C64.1082 12.6038 63.9788 12.9144 63.72 13.0956C63.4612 13.3026 63.1247 13.3026 62.84 13.1732L59.5273 11.3874L56.1887 13.1732C55.9299 13.3026 55.5676 13.3026 55.3347 13.0956C55.0759 12.9144 54.9465 12.6038 54.9982 12.2933L55.6194 8.51471L52.9278 5.84901C52.6949 5.64197 52.6172 5.30552 52.7207 5.02084C52.8243 4.71027 53.0831 4.50322 53.3936 4.45146L57.1204 3.90797L58.7768 0.465851C58.9062 0.181164 59.1909 0 59.5273 0C59.8379 0 60.1226 0.181164 60.252 0.465851L61.9342 3.90797Z" fill="#FFC700"/>
<path d="M79.3249 3.90797L83.0258 4.45146C83.3364 4.50322 83.5952 4.71027 83.6987 5.02084C83.8022 5.30552 83.7246 5.64197 83.4916 5.84901L80.8001 8.51471L81.4471 12.2933C81.4988 12.6038 81.3694 12.9144 81.1106 13.0956C80.8518 13.3026 80.5154 13.3026 80.2307 13.1732L76.918 11.3874L73.5794 13.1732C73.3206 13.3026 72.9582 13.3026 72.7253 13.0956C72.4665 12.9144 72.3371 12.6038 72.3889 12.2933L73.01 8.51471L70.3184 5.84901C70.0855 5.64197 70.0079 5.30552 70.1114 5.02084C70.2149 4.71027 70.4737 4.50322 70.7843 4.45146L74.5111 3.90797L76.1674 0.465851C76.2968 0.181164 76.5815 0 76.918 0C77.2285 0 77.5132 0.181164 77.6426 0.465851L79.3249 3.90797Z" fill="#FFC700"/>
</g>
</svg>
